<?xml version="1.0" encoding="UTF-8"?>
<svg xmlns="http://www.w3.org/2000/svg" width="768" height="768" viewBox="0 0 512 512" role="img" aria-label="Cartoon cat">
	<title>Cartoon Cat</title>
	<desc>A cheerful cartoon cat with big eyes, whiskers, and a curled tail.</desc>
	<defs>
		<linearGradient id="bgGrad" x1="0" y1="0" x2="0" y2="1">
			<stop offset="0%" stop-color="#fff9ee"/>
			<stop offset="100%" stop-color="#fff3d8"/>
		</linearGradient>
		<filter id="softShadow" x="-20%" y="-20%" width="140%" height="140%">
			<feDropShadow dx="0" dy="2" stdDeviation="3" flood-color="#000" flood-opacity="0.15"/>
		</filter>
	</defs>

	<!-- Background -->
	<rect x="0" y="0" width="512" height="512" fill="url(#bgGrad)"/>

	<!-- Ground oval -->
	<ellipse cx="256" cy="440" rx="120" ry="26" fill="#000" opacity="0.08"/>

	<g filter="url(#softShadow)">
		<!-- Tail -->
		<path d="M392 360c34 14 44 56 14 74-16 10-38 2-44-16-3-9 2-19 9-25 9-7 21-10 21-10s-17 3-28 13c-9 8-15 22-10 36 7 22 34 33 56 24 32-14 43-55 24-84-14-22-42-32-70-32"
			fill="none" stroke="#3d3d3d" stroke-width="8" stroke-linecap="round" stroke-linejoin="round"/>

		<!-- Body -->
		<ellipse cx="256" cy="360" rx="120" ry="100" fill="#f1f3f5" stroke="#3d3d3d" stroke-width="6"/>

		<!-- Head -->
		<circle cx="256" cy="210" r="110" fill="#f7f8fa" stroke="#3d3d3d" stroke-width="6"/>

		<!-- Ears -->
		<path d="M173 128 L140 72 L120 160 Z" fill="#f7f8fa" stroke="#3d3d3d" stroke-width="6"/>
		<path d="M339 128 L372 72 L392 160 Z" fill="#f7f8fa" stroke="#3d3d3d" stroke-width="6"/>
		<!-- Inner ears -->
		<path d="M166 130 L145 90 L132 150 Z" fill="#ffb3c7" opacity="0.9"/>
		<path d="M346 130 L367 90 L380 150 Z" fill="#ffb3c7" opacity="0.9"/>

		<!-- Face markings -->
		<path d="M206 170c-20 10-30 28-30 50" fill="none" stroke="#e0e3e7" stroke-width="6" stroke-linecap="round"/>
		<path d="M306 170c20 10 30 28 30 50" fill="none" stroke="#e0e3e7" stroke-width="6" stroke-linecap="round"/>

		<!-- Eyes -->
		<g>
			<circle cx="214" cy="208" r="28" fill="#ffffff" stroke="#3d3d3d" stroke-width="6"/>
			<circle cx="214" cy="212" r="16" fill="#4fc3dc"/>
			<circle cx="214" cy="214" r="8" fill="#1f2d3d"/>
			<circle cx="208" cy="204" r="5" fill="#ffffff"/>
		</g>
		<g>
			<circle cx="298" cy="208" r="28" fill="#ffffff" stroke="#3d3d3d" stroke-width="6"/>
			<circle cx="298" cy="212" r="16" fill="#4fc3dc"/>
			<circle cx="298" cy="214" r="8" fill="#1f2d3d"/>
			<circle cx="292" cy="204" r="5" fill="#ffffff"/>
		</g>

		<!-- Nose -->
		<path d="M244 236 L268 236 L256 252 Z" fill="#ff9bb0" stroke="#3d3d3d" stroke-width="4"/>

		<!-- Mouth -->
		<path d="M256 252 C256 268 238 276 226 268" fill="none" stroke="#3d3d3d" stroke-width="5" stroke-linecap="round"/>
		<path d="M256 252 C256 268 274 276 286 268" fill="none" stroke="#3d3d3d" stroke-width="5" stroke-linecap="round"/>

		<!-- Whiskers -->
		<path d="M196 244 C168 238 144 238 122 246" stroke="#3d3d3d" stroke-width="4" fill="none" stroke-linecap="round"/>
		<path d="M196 256 C168 254 144 258 122 268" stroke="#3d3d3d" stroke-width="4" fill="none" stroke-linecap="round"/>
		<path d="M316 244 C344 238 368 238 390 246" stroke="#3d3d3d" stroke-width="4" fill="none" stroke-linecap="round"/>
		<path d="M316 256 C344 254 368 258 390 268" stroke="#3d3d3d" stroke-width="4" fill="none" stroke-linecap="round"/>

		<!-- Paws -->
		<g>
			<ellipse cx="210" cy="440" rx="28" ry="18" fill="#ffffff" stroke="#3d3d3d" stroke-width="5"/>
			<ellipse cx="302" cy="440" rx="28" ry="18" fill="#ffffff" stroke="#3d3d3d" stroke-width="5"/>
		</g>

		<!-- Belly patch -->
		<ellipse cx="256" cy="378" rx="56" ry="70" fill="#ffffff" opacity="0.9"/>
	</g>

	<!-- Subtle sparkles for charm -->
	<g opacity="0.35">
		<circle cx="86" cy="100" r="3" fill="#ffd166"/>
		<circle cx="426" cy="120" r="3" fill="#ffd166"/>
		<circle cx="72" cy="340" r="2" fill="#ffd166"/>
		<circle cx="452" cy="360" r="2" fill="#ffd166"/>
	</g>
</svg>


